<svg width="14" height="10" viewBox="0 0 14 10" fill="none" xmlns="http://www.w3.org/2000/svg">
<path d="M13.1508 0.609161C13.0656 0.523243 12.9642 0.455048 12.8525 0.40851C12.7408 0.361973 12.621 0.338013 12.5 0.338013C12.379 0.338013 12.2592 0.361973 12.1475 0.40851C12.0358 0.455048 11.9344 0.523243 11.8492 0.609161L5.01999 7.44749L2.15083 4.56916C2.06235 4.48369 1.9579 4.41649 1.84345 4.37138C1.729 4.32628 1.60679 4.30416 1.48379 4.30629C1.36079 4.30842 1.23942 4.33475 1.12659 4.38379C1.01377 4.43282 0.911713 4.5036 0.826245 4.59208C0.740776 4.68056 0.673571 4.785 0.628468 4.89945C0.583364 5.0139 0.561245 5.13612 0.563373 5.25912C0.565501 5.38211 0.591834 5.50349 0.64087 5.61631C0.689906 5.72913 0.760683 5.83119 0.849161 5.91666L4.36916 9.43666C4.45438 9.52258 4.55576 9.59077 4.66747 9.63731C4.77917 9.68385 4.89898 9.70781 5.01999 9.70781C5.14101 9.70781 5.26082 9.68385 5.37252 9.63731C5.48423 9.59077 5.58561 9.52258 5.67083 9.43666L13.1508 1.95666C13.2439 1.87082 13.3181 1.76664 13.3689 1.65068C13.4197 1.53473 13.4459 1.4095 13.4459 1.28291C13.4459 1.15632 13.4197 1.0311 13.3689 0.915139C13.3181 0.799181 13.2439 0.695 13.1508 0.609161Z" fill="#131313"/>
</svg>
