<svg width="12" height="12" viewBox="0 0 12 12" fill="none" xmlns="http://www.w3.org/2000/svg">
<path d="M10.3225 6.58341C10.1941 6.58341 10.06 6.54258 9.93164 6.51341C9.67197 6.45535 9.41663 6.37933 9.16748 6.28591C8.89686 6.18747 8.5994 6.19258 8.33232 6.30027C8.06525 6.40796 7.84744 6.61062 7.72081 6.86925L7.59248 7.13758C7.02596 6.81628 6.50259 6.42425 6.03498 5.97091C5.58164 5.5033 5.18961 4.97993 4.86831 4.41341L5.13664 4.29091C5.39527 4.16428 5.59793 3.94647 5.70562 3.6794C5.81331 3.41233 5.81843 3.11486 5.71998 2.84425C5.62734 2.59285 5.55134 2.33563 5.49248 2.07425C5.46331 1.94591 5.43998 1.81175 5.42248 1.68341C5.35164 1.27253 5.13643 0.900431 4.81559 0.634138C4.49476 0.367844 4.08938 0.224853 3.67248 0.230915H1.91664C1.67004 0.230592 1.42615 0.282393 1.20096 0.382922C0.975778 0.483451 0.774382 0.630438 0.609978 0.814248C0.442165 1.00305 0.317212 1.22594 0.243705 1.4676C0.170198 1.70927 0.149879 1.96398 0.184145 2.21425C0.501237 4.64216 1.61052 6.89763 3.33998 8.63091C5.07326 10.3604 7.32873 11.4697 9.75664 11.7867C9.83237 11.7925 9.90842 11.7925 9.98414 11.7867C10.4143 11.7874 10.8296 11.6296 11.1508 11.3434C11.3346 11.179 11.4816 10.9776 11.5821 10.7524C11.6827 10.5272 11.7345 10.2834 11.7341 10.0367V8.28675C11.731 7.88369 11.5888 7.49407 11.3316 7.18372C11.0744 6.87337 10.7179 6.66133 10.3225 6.58341ZM10.6083 10.0834C10.6081 10.1648 10.5909 10.2453 10.5577 10.3196C10.5246 10.394 10.4762 10.4605 10.4158 10.5151C10.3519 10.5733 10.2758 10.6166 10.1931 10.6419C10.1103 10.6671 10.023 10.6736 9.93748 10.6609C7.76064 10.3766 5.73762 9.38458 4.17998 7.83758C2.621 6.2786 1.62033 4.24855 1.33331 2.06258C1.32064 1.97703 1.32715 1.88972 1.35237 1.807C1.37759 1.72427 1.4209 1.64818 1.47914 1.58425C1.53434 1.52309 1.60186 1.47431 1.67727 1.44113C1.75268 1.40795 1.83426 1.39112 1.91664 1.39175H3.66664C3.80149 1.38845 3.93331 1.43199 4.03967 1.51495C4.14602 1.59791 4.22034 1.71516 4.24998 1.84675C4.24998 2.00425 4.30248 2.16758 4.33748 2.32508C4.4049 2.63067 4.49458 2.93091 4.60581 3.22341L3.78914 3.60841C3.64877 3.67285 3.53969 3.79033 3.48581 3.93508C3.42747 4.0771 3.42747 4.2364 3.48581 4.37841C4.32535 6.17669 5.77087 7.62221 7.56914 8.46175C7.71116 8.52009 7.87046 8.52009 8.01248 8.46175C8.15723 8.40787 8.27471 8.29879 8.33914 8.15841L8.70664 7.34175C9.00759 7.45149 9.31549 7.54113 9.62831 7.61008C9.77998 7.64508 9.94331 7.67425 10.1008 7.69758C10.2324 7.72722 10.3497 7.80154 10.4326 7.90789C10.5156 8.01425 10.5591 8.14607 10.5558 8.28091L10.6083 10.0834ZM7.16664 0.166748H6.75831C6.6036 0.179898 6.46045 0.253968 6.36035 0.372663C6.26026 0.491358 6.21141 0.644955 6.22456 0.799665C6.23771 0.954374 6.31178 1.09752 6.43048 1.19762C6.54917 1.29772 6.70277 1.34657 6.85748 1.33341H7.16664C8.0949 1.33341 8.98514 1.70216 9.64152 2.35854C10.2979 3.01492 10.6666 3.90516 10.6666 4.83341V5.14258C10.6537 5.29647 10.7023 5.44921 10.8018 5.56731C10.9013 5.6854 11.0436 5.75922 11.1975 5.77258H11.2441C11.3902 5.77317 11.5311 5.71897 11.6391 5.62069C11.7471 5.5224 11.8143 5.38719 11.8275 5.24175V4.83341C11.8275 3.59675 11.3366 2.41065 10.4627 1.53564C9.5888 0.660641 8.40331 0.168294 7.16664 0.166748ZM8.33331 4.83341C8.33331 4.98812 8.39477 5.1365 8.50416 5.24589C8.61356 5.35529 8.76193 5.41675 8.91664 5.41675C9.07135 5.41675 9.21973 5.35529 9.32912 5.24589C9.43852 5.1365 9.49998 4.98812 9.49998 4.83341C9.49998 4.21458 9.25414 3.62108 8.81656 3.1835C8.37897 2.74591 7.78548 2.50008 7.16664 2.50008C7.01193 2.50008 6.86356 2.56154 6.75417 2.67094C6.64477 2.78033 6.58331 2.9287 6.58331 3.08341C6.58331 3.23812 6.64477 3.3865 6.75417 3.49589C6.86356 3.60529 7.01193 3.66675 7.16664 3.66675C7.47606 3.66675 7.77281 3.78966 7.9916 4.00846C8.21039 4.22725 8.33331 4.524 8.33331 4.83341Z" fill="#131313"/>
</svg>
