<svg width="8" height="14" viewBox="0 0 8 14" fill="none" xmlns="http://www.w3.org/2000/svg">
<path d="M3.17195 7L7.30195 2.87C7.51924 2.65141 7.6412 2.35572 7.6412 2.0475C7.6412 1.73929 7.51924 1.44359 7.30195 1.225C7.19349 1.11565 7.06446 1.02886 6.92229 0.96963C6.78012 0.9104 6.62763 0.879906 6.47361 0.879906C6.3196 0.879906 6.16711 0.9104 6.02494 0.96963C5.88277 1.02886 5.75374 1.11565 5.64528 1.225L0.698614 6.17167C0.589264 6.28013 0.502471 6.40916 0.443241 6.55133C0.384011 6.6935 0.353516 6.84599 0.353516 7C0.353516 7.15402 0.384011 7.30651 0.443241 7.44868C0.502471 7.59085 0.589264 7.71988 0.698614 7.82834L5.64528 12.8333C5.75429 12.9415 5.88358 13.027 6.02572 13.0851C6.16787 13.1431 6.32007 13.1726 6.47361 13.1717C6.62715 13.1726 6.77936 13.1431 6.9215 13.0851C7.06365 13.027 7.19293 12.9415 7.30195 12.8333C7.51924 12.6147 7.6412 12.3191 7.6412 12.0108C7.6412 11.7026 7.51924 11.4069 7.30195 11.1883L3.17195 7Z" fill="#131313"/>
</svg>
