<svg width="12" height="12" viewBox="0 0 12 12" fill="none" xmlns="http://www.w3.org/2000/svg">
<path d="M3.98242 3.101C3.8895 3.08747 3.79474 3.10618 3.71392 3.154H3.70692C3.51942 3.264 3.35042 3.4025 3.20642 3.5655C3.08642 3.704 3.02142 3.844 3.00442 3.979C2.99442 4.059 3.00142 4.14 3.02492 4.2165L3.03392 4.2215C3.16892 4.618 3.34492 4.9995 3.55992 5.3585C3.83715 5.86274 4.1783 6.3291 4.57492 6.746L4.58692 6.763L4.60592 6.777L4.61742 6.7905L4.63142 6.8025C5.04979 7.20032 5.51723 7.54309 6.02242 7.8225C6.59992 8.137 6.95042 8.2855 7.16092 8.3475V8.3505C7.22242 8.3695 7.27842 8.378 7.33492 8.378C7.5142 8.36475 7.68388 8.29188 7.81692 8.171C7.97942 8.027 8.11692 7.8575 8.22392 7.669V7.6655C8.32442 7.4755 8.29042 7.2965 8.14542 7.175C7.85417 6.92052 7.53924 6.69449 7.20492 6.5C6.98092 6.3785 6.75342 6.452 6.66142 6.575L6.46492 6.823C6.36392 6.946 6.18092 6.929 6.18092 6.929L6.17592 6.932C4.81042 6.5835 4.44592 5.201 4.44592 5.201C4.44592 5.201 4.42892 5.013 4.55542 4.917L4.80142 4.719C4.91942 4.623 5.00142 4.396 4.87492 4.172C4.68173 3.83738 4.45615 3.52254 4.20142 3.232C4.14587 3.16362 4.06796 3.11705 3.98142 3.1005L3.98242 3.101ZM6.28992 2.5C6.22362 2.5 6.16003 2.52634 6.11315 2.57322C6.06626 2.62011 6.03992 2.6837 6.03992 2.75C6.03992 2.8163 6.06626 2.87989 6.11315 2.92678C6.16003 2.97366 6.22362 3 6.28992 3C6.92192 3 7.44692 3.2065 7.86242 3.6025C8.07592 3.819 8.24242 4.0755 8.35142 4.3565C8.46092 4.638 8.51092 4.9385 8.49792 5.2395C8.49514 5.3058 8.51881 5.3705 8.56372 5.41935C8.60864 5.4682 8.67112 5.49721 8.73742 5.5C8.80373 5.50278 8.86842 5.47912 8.91728 5.4342C8.96613 5.38929 8.99514 5.3268 8.99792 5.2605C9.01343 4.89024 8.95197 4.52079 8.81742 4.1755C8.68229 3.82857 8.4774 3.51306 8.21542 3.2485L8.21042 3.2435C7.69492 2.751 7.04292 2.5 6.28992 2.5Z" fill="#131313"/>
<path d="M6.27246 3.32203C6.20616 3.32203 6.14257 3.34837 6.09568 3.39526C6.0488 3.44214 6.02246 3.50573 6.02246 3.57203C6.02246 3.63834 6.0488 3.70193 6.09568 3.74881C6.14257 3.79569 6.20616 3.82203 6.27246 3.82203H6.28096C6.73696 3.85453 7.06896 4.00653 7.30146 4.25603C7.53996 4.51303 7.66346 4.83253 7.65396 5.22753C7.65244 5.29384 7.67731 5.35803 7.72312 5.40599C7.76892 5.45396 7.83191 5.48176 7.89821 5.48328C7.96452 5.48481 8.02871 5.45993 8.07667 5.41413C8.12463 5.36832 8.15244 5.30534 8.15396 5.23903C8.16596 4.72053 7.99896 4.27303 7.66796 3.91603V3.91503C7.32946 3.55203 6.86496 3.36003 6.30596 3.32253L6.29746 3.32153L6.27246 3.32203Z" fill="#131313"/>
<path d="M6.26294 4.15941C6.22948 4.15646 6.19577 4.16028 6.16383 4.17065C6.13188 4.18101 6.10235 4.1977 6.07699 4.21973C6.05164 4.24176 6.03099 4.26868 6.01626 4.29886C6.00154 4.32905 5.99305 4.3619 5.99131 4.39544C5.98956 4.42898 5.99459 4.46253 6.00609 4.49408C6.0176 4.52564 6.03534 4.55455 6.05827 4.5791C6.0812 4.60364 6.10883 4.62332 6.13953 4.63694C6.17023 4.65057 6.20336 4.65787 6.23694 4.65841C6.44594 4.66941 6.57944 4.73241 6.66344 4.81691C6.74794 4.90191 6.81094 5.03841 6.82244 5.25191C6.82307 5.28546 6.83044 5.31855 6.84412 5.34919C6.8578 5.37983 6.8775 5.4074 6.90207 5.43026C6.92663 5.45312 6.95554 5.47081 6.98708 5.48226C7.01862 5.49371 7.05215 5.49869 7.08566 5.49691C7.11916 5.49513 7.15197 5.48663 7.18212 5.4719C7.21227 5.45717 7.23915 5.43653 7.26115 5.41119C7.28316 5.38586 7.29983 5.35635 7.31019 5.32443C7.32055 5.29252 7.32437 5.25884 7.32144 5.22541C7.30544 4.92541 7.21144 4.66041 7.01894 4.46541C6.82544 4.27041 6.56194 4.17541 6.26294 4.15941Z" fill="#131313"/>
<path fill-rule="evenodd" clip-rule="evenodd" d="M3.53341 1.19203C5.12444 0.836381 6.77437 0.836381 8.36541 1.19203L8.53491 1.22953C9 1.3335 9.42717 1.56439 9.76894 1.89654C10.1107 2.22869 10.3537 2.64909 10.4709 3.11103C10.8748 4.70247 10.8748 6.36958 10.4709 7.96103C10.3537 8.42297 10.1107 8.84337 9.76894 9.17551C9.42717 9.50766 9 9.73855 8.53491 9.84252L8.36491 9.88002C7.36842 10.1029 6.3459 10.1868 5.32641 10.1295L3.99991 11.3165C3.9499 11.3613 3.88878 11.3918 3.82295 11.4049C3.75711 11.418 3.68897 11.4132 3.62563 11.391C3.56229 11.3688 3.50607 11.33 3.46285 11.2786C3.41963 11.2272 3.39098 11.1652 3.37991 11.099L3.16041 9.78802C2.7395 9.65706 2.35921 9.42033 2.05589 9.10046C1.75257 8.7806 1.53635 8.38829 1.4279 7.96103C1.02403 6.36958 1.02403 4.70247 1.4279 3.11103C1.54511 2.64909 1.7881 2.22869 2.12987 1.89654C2.47164 1.56439 2.89881 1.3335 3.36391 1.22953L3.53341 1.19203ZM8.20191 1.92353C6.71854 1.59193 5.18027 1.59193 3.69691 1.92353L3.52691 1.96153C3.19726 2.03536 2.89454 2.19911 2.65234 2.43459C2.41015 2.67008 2.23796 2.96809 2.15491 3.29553C1.78176 4.76589 1.78176 6.30616 2.15491 7.77653C2.238 8.10403 2.41026 8.40208 2.65255 8.63757C2.89484 8.87307 3.19767 9.03678 3.52741 9.11052L3.57241 9.12052C3.6452 9.1368 3.71149 9.17443 3.76279 9.22858C3.81409 9.28273 3.84808 9.35096 3.86041 9.42452L4.00741 10.3035L4.94341 9.46602C4.98078 9.43248 5.02452 9.40679 5.07202 9.39047C5.11951 9.37415 5.1698 9.36754 5.21991 9.37102C6.21944 9.44193 7.22397 9.36698 8.20191 9.14852L8.37141 9.11052C8.70114 9.03678 9.00397 8.87307 9.24626 8.63757C9.48855 8.40208 9.66081 8.10403 9.74391 7.77653C10.1169 6.30653 10.1169 4.76603 9.74391 3.29553C9.66081 2.96803 9.48855 2.66997 9.24626 2.43448C9.00397 2.19899 8.70114 2.03527 8.37141 1.96153L8.20191 1.92353Z" fill="#131313"/>
</svg>
