<svg width="10" height="12" viewBox="0 0 10 12" fill="none" xmlns="http://www.w3.org/2000/svg">
<path d="M8.50004 1.61332C7.57178 0.685064 6.31279 0.163574 5.00004 0.163574C3.68729 0.163574 2.4283 0.685064 1.50004 1.61332C0.571783 2.54158 0.050293 3.80057 0.050293 5.11332C0.050293 6.42608 0.571783 7.68506 1.50004 8.61332L4.57421 11.6933C4.62844 11.748 4.69295 11.7914 4.76404 11.821C4.83512 11.8506 4.91137 11.8659 4.98837 11.8659C5.06538 11.8659 5.14162 11.8506 5.21271 11.821C5.28379 11.7914 5.34831 11.748 5.40254 11.6933L8.50004 8.58416C9.42442 7.65976 9.94373 6.40602 9.94373 5.09874C9.94373 3.79146 9.42442 2.53772 8.50004 1.61332ZM7.66587 7.74999L5.00004 10.4275L2.33421 7.74999C1.80754 7.22284 1.44898 6.55138 1.30386 5.82049C1.15874 5.0896 1.23357 4.33209 1.51888 3.64372C1.8042 2.95535 2.2872 2.36702 2.90682 1.9531C3.52645 1.53918 4.25488 1.31826 5.00004 1.31826C5.7452 1.31826 6.47363 1.53918 7.09326 1.9531C7.71288 2.36702 8.19588 2.95535 8.4812 3.64372C8.76651 4.33209 8.84134 5.0896 8.69622 5.82049C8.5511 6.55138 8.19254 7.22284 7.66587 7.74999ZM3.25004 3.32249C2.77912 3.79486 2.51469 4.43465 2.51469 5.10166C2.51469 5.76866 2.77912 6.40845 3.25004 6.88082C3.5999 7.23128 4.04547 7.47062 4.53084 7.56881C5.01621 7.667 5.51976 7.61966 5.97833 7.43274C6.4369 7.24583 6.83006 6.92765 7.10849 6.51813C7.38691 6.10862 7.5382 5.626 7.54337 5.13082C7.546 4.80019 7.48231 4.47239 7.35607 4.1668C7.22982 3.86121 7.04359 3.58403 6.80837 3.35166C6.57718 3.11516 6.3015 2.92672 5.9972 2.79718C5.6929 2.66763 5.36599 2.59955 5.03527 2.59684C4.70456 2.59413 4.37657 2.65684 4.07019 2.78138C3.76381 2.90592 3.48508 3.08981 3.25004 3.32249ZM5.98587 6.05249C5.76482 6.27692 5.47266 6.4176 5.15936 6.45047C4.84607 6.48334 4.53108 6.40636 4.26825 6.2327C4.00543 6.05903 3.81109 5.79946 3.71846 5.49837C3.62583 5.19728 3.64067 4.87336 3.76043 4.582C3.8802 4.29063 4.09745 4.04991 4.37505 3.901C4.65265 3.75209 4.97335 3.70423 5.28234 3.7656C5.59132 3.82697 5.86939 3.99376 6.069 4.23746C6.26862 4.48116 6.37739 4.78664 6.37671 5.10166C6.36822 5.46173 6.21716 5.80371 5.95671 6.05249H5.98587Z" fill="#131313"/>
</svg>
