<svg width="12" height="10" viewBox="0 0 12 10" fill="none" xmlns="http://www.w3.org/2000/svg">
<path d="M10.0833 0.333252H1.91663C1.4525 0.333252 1.00738 0.517626 0.679189 0.845815C0.351001 1.174 0.166626 1.61912 0.166626 2.08325V7.91658C0.166626 8.38071 0.351001 8.82583 0.679189 9.15402C1.00738 9.48221 1.4525 9.66658 1.91663 9.66658H10.0833C10.5474 9.66658 10.9925 9.48221 11.3207 9.15402C11.6489 8.82583 11.8333 8.38071 11.8333 7.91658V2.08325C11.8333 1.61912 11.6489 1.174 11.3207 0.845815C10.9925 0.517626 10.5474 0.333252 10.0833 0.333252ZM9.84413 1.49992L6.41413 4.92992C6.3599 4.98459 6.29538 5.02799 6.2243 5.0576C6.15321 5.08722 6.07697 5.10247 5.99996 5.10247C5.92295 5.10247 5.84671 5.08722 5.77562 5.0576C5.70454 5.02799 5.64002 4.98459 5.58579 4.92992L2.15579 1.49992H9.84413ZM10.6666 7.91658C10.6666 8.07129 10.6052 8.21967 10.4958 8.32906C10.3864 8.43846 10.238 8.49992 10.0833 8.49992H1.91663C1.76192 8.49992 1.61354 8.43846 1.50415 8.32906C1.39475 8.21967 1.33329 8.07129 1.33329 7.91658V2.32242L4.76329 5.75242C5.09142 6.08014 5.53621 6.26421 5.99996 6.26421C6.46371 6.26421 6.9085 6.08014 7.23663 5.75242L10.6666 2.32242V7.91658Z" fill="#131313"/>
</svg>
