<svg width="10" height="10" viewBox="0 0 10 10" fill="none" xmlns="http://www.w3.org/2000/svg">
<path d="M6.5365 0H3.469C0.666 0 0 0.6665 0 3.4635V6.5315C0 9.3335 0.6615 10 3.4635 10H6.5315C9.3335 10 10 9.3385 10 6.5365V3.469C10 0.666 9.3385 0 6.5365 0ZM8.073 7.135H7.3435C7.0675 7.135 6.9845 6.9115 6.4895 6.4165C6.0575 6 5.875 5.948 5.7655 5.948C5.6145 5.948 5.573 5.9895 5.573 6.198V6.854C5.573 7.0315 5.5155 7.1355 5.052 7.1355C4.60217 7.10527 4.16596 6.96861 3.7793 6.73677C3.39264 6.50493 3.06659 6.18454 2.828 5.802C2.26158 5.097 1.86747 4.26957 1.677 3.3855C1.677 3.276 1.7185 3.177 1.927 3.177H2.6565C2.844 3.177 2.9115 3.2605 2.9845 3.453C3.3385 4.495 3.9425 5.401 4.1875 5.401C4.2815 5.401 4.3225 5.3595 4.3225 5.125V4.052C4.2915 3.5625 4.0315 3.521 4.0315 3.344C4.03484 3.29732 4.05623 3.25377 4.09115 3.22259C4.12606 3.19141 4.17174 3.17506 4.2185 3.177H5.3645C5.521 3.177 5.573 3.255 5.573 3.4425V4.8905C5.573 5.047 5.6405 5.099 5.6875 5.099C5.7815 5.099 5.854 5.047 6.026 4.875C6.39543 4.42448 6.69727 3.92254 6.922 3.385C6.94497 3.32043 6.98844 3.26515 7.04577 3.2276C7.10309 3.19004 7.17113 3.17227 7.2395 3.177H7.969C8.1875 3.177 8.234 3.2865 8.1875 3.4425C7.92225 4.03672 7.59404 4.60077 7.2085 5.125C7.13 5.245 7.0985 5.3075 7.2085 5.448C7.281 5.5575 7.5365 5.771 7.7085 5.974C7.95845 6.22332 8.16602 6.51178 8.323 6.828C8.3855 7.031 8.281 7.135 8.073 7.135Z" fill="#131313"/>
</svg>
