<svg width="12" height="12" viewBox="0 0 12 12" fill="none" xmlns="http://www.w3.org/2000/svg">
<path fill-rule="evenodd" clip-rule="evenodd" d="M9.49261 8.47266C9.34801 8.88198 8.7732 9.2206 8.3148 9.31963C8.001 9.38625 7.5918 9.43895 6.213 8.86758C4.6644 8.22599 2.514 5.94058 2.514 4.41973C2.514 3.64549 2.9604 2.74395 3.741 2.74395C4.1166 2.74395 4.1994 2.75127 4.323 3.04775C4.4676 3.39706 4.8204 4.25767 4.8624 4.3459C5.0358 4.70781 4.686 4.91967 4.4322 5.23477C4.3512 5.32959 4.2594 5.43215 4.362 5.60859C4.464 5.78145 4.8168 6.35643 5.3352 6.81797C6.0048 7.41455 6.5478 7.60501 6.7422 7.68604C6.8868 7.74605 7.0596 7.73207 7.1652 7.61924C7.299 7.4746 7.4652 7.23462 7.6344 6.99814C7.7538 6.82889 7.90561 6.80776 8.06461 6.86777C8.17201 6.90499 9.537 7.5389 9.5946 7.64033C9.6372 7.71416 9.63721 8.06333 9.49261 8.47266ZM6.0012 0H5.9982C2.6904 0 0 2.69121 0 6C0 7.312 0.423004 8.5292 1.1424 9.5165L0.394803 11.746L2.7006 11.0092C3.6492 11.637 4.7814 12 6.0012 12C9.309 12 12 9.30879 12 6C12 2.69121 9.309 0 6.0012 0Z" fill="#131313"/>
</svg>
